#define disciplined_width 10
#define disciplined_height 10
static unsigned char disciplined_bits[] = {
   0x00, 0x03, 0x80, 0x02, 0x40, 0x01, 0x40, 0x01, 0xa0, 0x00, 0xa0, 0x00,
   0xae, 0x00, 0x44, 0x00, 0x8e, 0x00, 0x8e, 0x00 };
