#define disciplined_width 8
#define disciplined_height 8
static unsigned char disciplined_bits[] = {
   0x80, 0x60, 0x50, 0x50, 0x57, 0x22, 0x47, 0x47 };
