#define female_width 10
#define female_height 10
static unsigned char female_bits[] = {
   0xf0, 0x00, 0x98, 0x01, 0x08, 0x01, 0x08, 0x01, 0x98, 0x01, 0xf0, 0x00,
   0x60, 0x00, 0xf8, 0x01, 0x60, 0x00, 0x60, 0x00 };
