#define female_width 8
#define female_height 8
static unsigned char female_bits[] = {
   0x38, 0x44, 0x44, 0x44, 0x38, 0x10, 0x38, 0x10 };
