#define female_width 10
#define female_height 10
static unsigned char female_bits[] = {
   0x78, 0x00, 0xcc, 0x00, 0x84, 0x00, 0x84, 0x00, 0xcc, 0x00, 0x78, 0x00,
   0x30, 0x00, 0xfc, 0x00, 0x30, 0x00, 0x30, 0x00 };
