#define glutton_width 8
#define glutton_height 8
static unsigned char glutton_bits[] = {
   0x60, 0xfc, 0xd6, 0x6e, 0x5a, 0x77, 0x3f, 0x06 };
