#define glutton_width 10
#define glutton_height 10
static unsigned char glutton_bits[] = {
   0xc0, 0x00, 0xc0, 0x01, 0xf8, 0x03, 0xac, 0x03, 0xdc, 0x00, 0xb4, 0x00,
   0xef, 0x00, 0x7f, 0x00, 0x0e, 0x00, 0x0c, 0x00 };
