#define heart_empty_width 8
#define heart_empty_height 8
static unsigned char heart_empty_bits[] = {
   0x00, 0x6c, 0x92, 0x82, 0x44, 0x28, 0x10, 0x00 };
