#define heart_full_width 8
#define heart_full_height 8
static unsigned char heart_full_bits[] = {
   0x00, 0x6c, 0xfe, 0xfe, 0x7c, 0x38, 0x10, 0x00 };
