#define heart_half_width 8
#define heart_half_height 8
static unsigned char heart_half_bits[] = {
   0x00, 0x6c, 0x9e, 0x9e, 0x5c, 0x38, 0x10, 0x00 };
