#define introvert_width 10
#define introvert_height 10
static unsigned char introvert_bits[] = {
   0x00, 0x00, 0x7c, 0x00, 0x83, 0x00, 0xb9, 0x00, 0xa5, 0x00, 0xa9, 0x02,
   0xa3, 0x01, 0x7e, 0x02, 0x02, 0x02, 0xff, 0x01 };
