#define introvert_width 8
#define introvert_height 8
static unsigned char introvert_bits[] = {
   0x3e, 0x41, 0x5d, 0x55, 0x29, 0xa7, 0xfe, 0xff };
