#define male_width 8
#define male_height 8
static unsigned char male_bits[] = {
   0xe0, 0xc0, 0xa0, 0x1c, 0x22, 0x22, 0x22, 0x1c };
