#define male_width 10
#define male_height 10
static unsigned char male_bits[] = {
   0xc0, 0x03, 0x80, 0x03, 0xc0, 0x02, 0x78, 0x00, 0xcc, 0x00, 0x84, 0x00,
   0x84, 0x00, 0xcc, 0x00, 0x78, 0x00, 0x00, 0x00 };
