#define male_width 10
#define male_height 10
static unsigned char male_bits[] = {
   0xe0, 0x01, 0xc0, 0x01, 0x60, 0x01, 0x3c, 0x00, 0x66, 0x00, 0x42, 0x00,
   0x42, 0x00, 0x66, 0x00, 0x3c, 0x00, 0x00, 0x00 };
