#define playful_width 10
#define playful_height 10
static unsigned char playful_bits[] = {
   0x00, 0x00, 0x78, 0x00, 0x84, 0x00, 0xce, 0x01, 0xb5, 0x02, 0x49, 0x02,
   0xb5, 0x02, 0xce, 0x01, 0x84, 0x00, 0x78, 0x00 };
