#define playful_width 8
#define playful_height 8
static unsigned char playful_bits[] = {
   0x3c, 0x66, 0xdb, 0xe1, 0x87, 0xdb, 0x66, 0x3c };
