#define initial_screen_2_width 70
#define initial_screen_2_height 36
static unsigned char initial_screen_2_bits[] = {
   0x30, 0x30, 0x00, 0x02, 0x00, 0x00, 0x00, 0x00, 0x00, 0x70, 0x30, 0x00,
   0x04, 0x00, 0x00, 0x40, 0x00, 0x00, 0x60, 0x30, 0x00, 0x04, 0x00, 0x00,
   0x40, 0x00, 0x00, 0x60, 0x30, 0x00, 0x04, 0x00, 0x00, 0x40, 0x00, 0x00,
   0x60, 0x18, 0x03, 0x08, 0x00, 0x00, 0x40, 0x00, 0x00, 0xc0, 0x18, 0x03,
   0x08, 0x00, 0x00, 0x40, 0x00, 0x00, 0xc0, 0x18, 0xc0, 0x11, 0x00, 0xe0,
   0x41, 0x70, 0x00, 0x80, 0x18, 0xc0, 0x13, 0x00, 0x01, 0x43, 0x40, 0x00,
   0x80, 0x19, 0x6b, 0xa2, 0x01, 0x01, 0x42, 0xc0, 0x00, 0x80, 0x19, 0x7b,
   0x60, 0x00, 0xc1, 0x43, 0xb8, 0x00, 0x00, 0x1b, 0x73, 0x30, 0x20, 0x22,
   0x42, 0x88, 0x00, 0x00, 0x1f, 0x63, 0x5c, 0x20, 0x22, 0x42, 0x88, 0x00,
   0x00, 0x1e, 0xe3, 0x40, 0x20, 0x22, 0x42, 0xc8, 0x00, 0x00, 0x0e, 0xc3,
   0x40, 0x20, 0x22, 0x42, 0x78, 0x01, 0x00, 0x0c, 0xc7, 0x80, 0x20, 0xe1,
   0x87, 0x00, 0x03, 0x00, 0x04, 0xc7, 0x80, 0x40, 0x01, 0x0c, 0x00, 0x00,
   0x00, 0x00, 0x06, 0x00, 0xc1, 0x00, 0x00, 0x00, 0x00, 0x00, 0x00, 0x06,
   0x00, 0x01, 0x00, 0x00, 0x00, 0x00, 0x00, 0x00, 0x00, 0x00, 0x02, 0x00,
   0x00, 0x00, 0x00, 0x00, 0x00, 0x00, 0x00, 0x02, 0x00, 0x00, 0x00, 0x00,
   0x7c, 0x00, 0x00, 0x00, 0x00, 0x00, 0x00, 0x08, 0x00, 0x88, 0x00, 0x00,
   0x00, 0xc0, 0x01, 0x00, 0x08, 0x00, 0x88, 0x00, 0x00, 0x00, 0xc1, 0x01,
   0x00, 0x08, 0x00, 0x88, 0x00, 0x40, 0x00, 0x81, 0x01, 0x00, 0x08, 0x00,
   0x88, 0x00, 0x80, 0x00, 0x81, 0x01, 0x00, 0x08, 0x00, 0x88, 0x00, 0x80,
   0x00, 0x89, 0x01, 0xe0, 0x08, 0x00, 0x88, 0x00, 0x00, 0x01, 0x87, 0x01,
   0xf6, 0x7c, 0x00, 0x88, 0x00, 0x1b, 0xc1, 0x81, 0x07, 0x37, 0x08, 0x00,
   0x88, 0x0c, 0x2c, 0x01, 0x01, 0x9f, 0xed, 0x09, 0x06, 0x88, 0x12, 0x04,
   0x31, 0x01, 0xbb, 0xcd, 0x1b, 0x0d, 0x49, 0x22, 0x08, 0x49, 0x01, 0xb3,
   0x06, 0x16, 0x11, 0x3e, 0x62, 0x08, 0x49, 0x01, 0xa3, 0x03, 0x16, 0x26,
   0x08, 0x46, 0x08, 0x49, 0x01, 0x33, 0xdf, 0x14, 0x1c, 0x00, 0x3c, 0x08,
   0x31, 0x01, 0x37, 0xce, 0x36, 0x00, 0x00, 0x00, 0x80, 0x01, 0x05, 0x3e,
   0xc0, 0x67, 0x00, 0x00, 0x00, 0x00, 0x00, 0x06, 0x00, 0x80, 0x03, 0x00 };
