#define initial_screen_width 84
#define initial_screen_height 48
static unsigned char initial_screen_bits[] = {
   0x00, 0x00, 0x00, 0x00, 0x00, 0x00, 0x00, 0x00, 0x00, 0x00, 0x00, 0x00,
   0x00, 0x00, 0x00, 0x00, 0x00, 0x00, 0x00, 0x00, 0x00, 0x00, 0x00, 0x00,
   0x00, 0x20, 0x00, 0x00, 0x00, 0x00, 0x00, 0x00, 0x00, 0x00, 0x00, 0x02,
   0x20, 0x00, 0x00, 0x00, 0x00, 0x00, 0x00, 0x00, 0x00, 0x01, 0x02, 0x40,
   0x00, 0x00, 0x00, 0x04, 0x00, 0x00, 0x00, 0x00, 0x02, 0x02, 0x40, 0x00,
   0x00, 0x00, 0x04, 0x00, 0x00, 0x00, 0x00, 0x02, 0x01, 0x40, 0x00, 0x00,
   0x00, 0x04, 0x00, 0x00, 0x00, 0x00, 0x02, 0x11, 0x80, 0x00, 0x00, 0x00,
   0x04, 0x00, 0x00, 0x00, 0x00, 0x04, 0x01, 0x80, 0x00, 0x00, 0x00, 0x04,
   0x00, 0x00, 0x00, 0x00, 0x84, 0x00, 0x00, 0x01, 0x00, 0x1e, 0x04, 0x07,
   0x00, 0x00, 0x00, 0x88, 0x00, 0x1c, 0x01, 0x10, 0x30, 0x04, 0x04, 0x00,
   0x00, 0x00, 0x88, 0x10, 0x02, 0x1a, 0x10, 0x20, 0x04, 0x0c, 0x00, 0x00,
   0x00, 0x90, 0x90, 0x02, 0x06, 0x10, 0x3c, 0x84, 0x0b, 0x00, 0x00, 0x00,
   0x90, 0x10, 0x03, 0x02, 0x22, 0x22, 0x84, 0x08, 0x00, 0x00, 0x00, 0x50,
   0x10, 0xc2, 0x05, 0x22, 0x22, 0x84, 0x08, 0x00, 0x00, 0x00, 0x60, 0x10,
   0x02, 0x04, 0x22, 0x22, 0x84, 0x0c, 0x00, 0x00, 0x00, 0x60, 0x10, 0x04,
   0x04, 0x22, 0x22, 0x84, 0x17, 0x00, 0x00, 0x00, 0x40, 0x10, 0x04, 0x08,
   0x12, 0x7e, 0x08, 0x30, 0x00, 0x00, 0x00, 0x40, 0x10, 0x0c, 0x08, 0x14,
   0xc0, 0x00, 0x00, 0x00, 0x00, 0x00, 0x00, 0x20, 0x00, 0x10, 0x0c, 0x00,
   0x00, 0x00, 0x00, 0x00, 0x00, 0x00, 0x20, 0x00, 0x10, 0x00, 0x00, 0x00,
   0x00, 0x00, 0x00, 0x00, 0x00, 0x00, 0x00, 0x20, 0x00, 0x00, 0x00, 0x00,
   0x00, 0x00, 0x00, 0x00, 0x00, 0x00, 0x20, 0x00, 0x00, 0x00, 0x00, 0x00,
   0x00, 0x00, 0x00, 0x00, 0x00, 0x00, 0x00, 0x00, 0x00, 0x00, 0x00, 0x00,
   0x00, 0x00, 0x00, 0x00, 0x00, 0x00, 0x00, 0x00, 0x00, 0x00, 0x00, 0x00,
   0x00, 0x00, 0x00, 0x00, 0x00, 0x00, 0x00, 0x00, 0x00, 0x00, 0x00, 0x00,
   0x00, 0x00, 0x00, 0x00, 0x00, 0x00, 0x00, 0x00, 0x00, 0x80, 0x0f, 0x00,
   0x00, 0x00, 0x00, 0x00, 0x00, 0x01, 0x00, 0x00, 0x00, 0x11, 0x00, 0x00,
   0x00, 0x00, 0x00, 0x00, 0x01, 0x00, 0x00, 0x00, 0x11, 0x00, 0x00, 0x20,
   0x08, 0x00, 0x00, 0x01, 0x00, 0x00, 0x00, 0x11, 0x00, 0x08, 0x20, 0x10,
   0x00, 0x00, 0x01, 0x00, 0x00, 0x00, 0x11, 0x00, 0x10, 0x20, 0x10, 0x00,
   0x00, 0x01, 0x00, 0x00, 0x00, 0x11, 0x00, 0x10, 0x20, 0x11, 0x00, 0x00,
   0x01, 0x00, 0x00, 0x00, 0x11, 0x00, 0x20, 0xe0, 0x10, 0x00, 0x9c, 0x0f,
   0x00, 0x00, 0x00, 0x11, 0x60, 0x23, 0x38, 0x30, 0x60, 0x04, 0x01, 0x00,
   0x00, 0x00, 0x91, 0x81, 0x25, 0x20, 0xe0, 0x91, 0x38, 0xc1, 0x00, 0x00,
   0x00, 0x51, 0x82, 0x20, 0x26, 0x20, 0x93, 0x60, 0xa3, 0x01, 0x00, 0x20,
   0x49, 0x04, 0x21, 0x29, 0x20, 0x56, 0x40, 0x22, 0x02, 0x00, 0xc0, 0x47,
   0x0c, 0x21, 0x29, 0x20, 0x34, 0x80, 0xc2, 0x04, 0x00, 0x00, 0xc1, 0x08,
   0x21, 0x29, 0x20, 0xc6, 0x93, 0x82, 0x03, 0x00, 0x00, 0x80, 0x07, 0x21,
   0x26, 0x40, 0x02, 0x88, 0x06, 0x00, 0x00, 0x00, 0x00, 0x00, 0x30, 0xa0,
   0xc0, 0x03, 0x78, 0x0c, 0x00, 0x00, 0x00, 0x00, 0x00, 0x00, 0xc0, 0x00,
   0x00, 0x00, 0x00, 0x00, 0x00, 0x00, 0x00, 0x00, 0x00, 0x00, 0x00, 0x00,
   0x00, 0x00, 0x00, 0x00, 0x00, 0x00, 0x00, 0x00, 0x00, 0x00, 0x00, 0x00,
   0x00, 0x00, 0x00, 0x00, 0x00, 0x00, 0x00, 0x00, 0x00, 0x00, 0x00, 0x00,
   0x00, 0x00, 0x00, 0x00, 0x00, 0x00, 0x00, 0x00, 0x00, 0x00, 0x00, 0x00,
   0x00, 0x00, 0x00, 0x00, 0x00, 0x00, 0x00, 0x00, 0x00, 0x00, 0x00, 0x00 };
