#define learn_width 10
#define learn_height 10
static unsigned char learn_bits[] = {
   0xdc, 0x00, 0x22, 0x01, 0x11, 0x02, 0x21, 0x02, 0x11, 0x02, 0x21, 0x02,
   0x11, 0x02, 0x79, 0x02, 0x87, 0x03, 0x00, 0x00 };
