#define mail_width 10
#define mail_height 10
static unsigned char mail_bits[] = {
   0x00, 0x00, 0x00, 0x00, 0xfc, 0x00, 0x86, 0x01, 0x4a, 0x01, 0x32, 0x01,
   0x02, 0x01, 0x02, 0x01, 0xfe, 0x01, 0x00, 0x00 };
