#define medic_width 10
#define medic_height 10
static unsigned char medic_bits[] = {
   0x78, 0x00, 0x48, 0x00, 0xfc, 0x00, 0x02, 0x01, 0x32, 0x01, 0x7a, 0x01,
   0x32, 0x01, 0x02, 0x01, 0xfe, 0x01, 0x00, 0x00 };
