#define outside_width 10
#define outside_height 10
static unsigned char outside_bits[] = {
   0x38, 0x00, 0x44, 0x00, 0x82, 0x00, 0x82, 0x00, 0xa2, 0x00, 0x82, 0x00,
   0x82, 0x00, 0x82, 0x00, 0xfe, 0x00, 0x00, 0x00 };
