#define play_width 10
#define play_height 10
static unsigned char play_bits[] = {
   0x00, 0x00, 0x1c, 0x00, 0x22, 0x00, 0x22, 0x00, 0x22, 0x00, 0x14, 0x00,
   0x08, 0x00, 0x08, 0x01, 0x90, 0x00, 0x60, 0x00 };
