#define play_width 10
#define play_height 10
static unsigned char play_bits[] = {
   0x00, 0x00, 0x1c, 0x00, 0x22, 0x00, 0x22, 0x00, 0x22, 0x00, 0x14, 0x00,
   0x88, 0x00, 0x48, 0x00, 0x30, 0x00, 0x00, 0x00 };
