#define settings_width 10
#define settings_height 10
static unsigned char settings_bits[] = {
   0xfc, 0x00, 0x02, 0x01, 0x7a, 0x01, 0x02, 0x01, 0x7a, 0x01, 0x02, 0x01,
   0x7a, 0x01, 0x02, 0x01, 0xfc, 0x00, 0x00, 0x00 };
