#define settings_width 10
#define settings_height 10
static unsigned char settings_bits[] = {
   0x00, 0x00, 0x7c, 0x00, 0xf8, 0x00, 0x00, 0x00, 0x7c, 0x00, 0xf8, 0x00,
   0x00, 0x00, 0x7c, 0x00, 0xf8, 0x00, 0x00, 0x00 };
