#define shower_width 10
#define shower_height 10
static unsigned char shower_bits[] = {
   0x00, 0x00, 0xe0, 0x00, 0x80, 0x00, 0x80, 0x00, 0x80, 0x00, 0xfe, 0x01,
   0x04, 0x01, 0x08, 0x01, 0xf0, 0x00, 0x00, 0x00 };
