#define sleep_width 10
#define sleep_height 10
static unsigned char sleep_bits[] = {
   0x00, 0x00, 0xe0, 0x01, 0x80, 0x00, 0x40, 0x00, 0xe0, 0x01, 0x1e, 0x00,
   0x08, 0x00, 0x04, 0x00, 0x1e, 0x00, 0x00, 0x00 };
