#define status_width 10
#define status_height 10
static unsigned char status_bits[] = {
   0x00, 0x00, 0x78, 0x00, 0x84, 0x00, 0x32, 0x01, 0x02, 0x01, 0x32, 0x01,
   0x32, 0x01, 0xb4, 0x00, 0x78, 0x00, 0x00, 0x00 };
