#define initial_screen_width 70
#define initial_screen_height 36
static unsigned char initial_screen_bits[] = {
   0x00, 0x20, 0x00, 0x02, 0x00, 0x00, 0x00, 0x00, 0x00, 0x10, 0x20, 0x00,
   0x04, 0x00, 0x00, 0x40, 0x00, 0x00, 0x20, 0x20, 0x00, 0x04, 0x00, 0x00,
   0x40, 0x00, 0x00, 0x20, 0x10, 0x00, 0x04, 0x00, 0x00, 0x40, 0x00, 0x00,
   0x20, 0x10, 0x01, 0x08, 0x00, 0x00, 0x40, 0x00, 0x00, 0x40, 0x10, 0x00,
   0x08, 0x00, 0x00, 0x40, 0x00, 0x00, 0x40, 0x08, 0x00, 0x10, 0x00, 0xe0,
   0x41, 0x70, 0x00, 0x80, 0x08, 0xc0, 0x11, 0x00, 0x01, 0x43, 0x40, 0x00,
   0x80, 0x08, 0x21, 0xa0, 0x01, 0x01, 0x42, 0xc0, 0x00, 0x00, 0x09, 0x29,
   0x60, 0x00, 0xc1, 0x43, 0xb8, 0x00, 0x00, 0x09, 0x31, 0x20, 0x20, 0x22,
   0x42, 0x88, 0x00, 0x00, 0x05, 0x21, 0x5c, 0x20, 0x22, 0x42, 0x88, 0x00,
   0x00, 0x06, 0x21, 0x40, 0x20, 0x22, 0x42, 0xc8, 0x00, 0x00, 0x06, 0x41,
   0x40, 0x20, 0x22, 0x42, 0x78, 0x01, 0x00, 0x04, 0x41, 0x80, 0x20, 0xe1,
   0x87, 0x00, 0x03, 0x00, 0x04, 0x41, 0x80, 0x40, 0x01, 0x0c, 0x00, 0x00,
   0x00, 0x00, 0x02, 0x00, 0xc1, 0x00, 0x00, 0x00, 0x00, 0x00, 0x00, 0x02,
   0x00, 0x01, 0x00, 0x00, 0x00, 0x00, 0x00, 0x00, 0x00, 0x00, 0x02, 0x00,
   0x00, 0x00, 0x00, 0x00, 0x00, 0x00, 0x00, 0x02, 0x00, 0x00, 0x00, 0x00,
   0x7c, 0x00, 0x00, 0x00, 0x00, 0x00, 0x00, 0x08, 0x00, 0x88, 0x00, 0x00,
   0x00, 0x00, 0x00, 0x00, 0x08, 0x00, 0x88, 0x00, 0x00, 0x00, 0x41, 0x00,
   0x00, 0x08, 0x00, 0x88, 0x00, 0x40, 0x00, 0x81, 0x00, 0x00, 0x08, 0x00,
   0x88, 0x00, 0x80, 0x00, 0x81, 0x00, 0x00, 0x08, 0x00, 0x88, 0x00, 0x80,
   0x00, 0x89, 0x00, 0x00, 0x08, 0x00, 0x88, 0x00, 0x00, 0x01, 0x87, 0x00,
   0xe0, 0x7c, 0x00, 0x88, 0x00, 0x1b, 0xc1, 0x81, 0x01, 0x23, 0x08, 0x00,
   0x88, 0x0c, 0x2c, 0x01, 0x01, 0x8f, 0xc4, 0x09, 0x06, 0x88, 0x12, 0x04,
   0x31, 0x01, 0x99, 0x04, 0x1b, 0x0d, 0x49, 0x22, 0x08, 0x49, 0x01, 0xb1,
   0x02, 0x12, 0x11, 0x3e, 0x62, 0x08, 0x49, 0x01, 0xa1, 0x01, 0x14, 0x26,
   0x08, 0x46, 0x08, 0x49, 0x01, 0x31, 0x9e, 0x14, 0x1c, 0x00, 0x3c, 0x08,
   0x31, 0x01, 0x12, 0x40, 0x34, 0x00, 0x00, 0x00, 0x80, 0x01, 0x05, 0x1e,
   0xc0, 0x63, 0x00, 0x00, 0x00, 0x00, 0x00, 0x06, 0x00, 0x00, 0x00, 0x00 };
