#define initial_screen_3_width 80
#define initial_screen_3_height 30
static unsigned char initial_screen_3_bits[] = {
   0x00, 0x00, 0x00, 0x00, 0x02, 0x00, 0x00, 0x00, 0x00, 0x00, 0xe0, 0x60,
   0x00, 0x00, 0x04, 0x00, 0x00, 0x00, 0x00, 0x00, 0xc0, 0x60, 0x18, 0x00,
   0x04, 0x00, 0xe0, 0x81, 0x00, 0x00, 0xc0, 0x60, 0x18, 0x00, 0x04, 0x00,
   0x00, 0x83, 0x00, 0x00, 0xc0, 0x30, 0x00, 0x00, 0x08, 0x00, 0x01, 0x82,
   0x00, 0x00, 0x80, 0x31, 0x00, 0x00, 0x08, 0x00, 0xc1, 0x83, 0x70, 0x00,
   0x80, 0x31, 0x18, 0x00, 0x10, 0x00, 0x21, 0x82, 0x40, 0x00, 0x00, 0x31,
   0x18, 0x70, 0x10, 0x20, 0x22, 0x82, 0xc0, 0x00, 0x00, 0x33, 0x18, 0xf0,
   0xa0, 0x21, 0x22, 0x82, 0xb8, 0x00, 0x00, 0x33, 0x18, 0x9a, 0x60, 0x20,
   0x22, 0x82, 0x88, 0x00, 0x00, 0x36, 0x18, 0x1e, 0x30, 0x20, 0xe2, 0x87,
   0x88, 0x00, 0x00, 0x3e, 0x18, 0x1c, 0x5c, 0x20, 0x01, 0x8c, 0xc8, 0x00,
   0x00, 0x3c, 0x38, 0x18, 0x40, 0x40, 0x01, 0x80, 0x78, 0x01, 0x00, 0x1c,
   0x38, 0x38, 0x40, 0xc0, 0x00, 0x80, 0x00, 0x03, 0x00, 0x18, 0x30, 0x30,
   0x80, 0x00, 0x00, 0x80, 0x00, 0x00, 0x00, 0x08, 0x30, 0x30, 0x80, 0x1c,
   0x00, 0x00, 0x11, 0x00, 0xf8, 0x00, 0x80, 0x31, 0x10, 0x1d, 0x00, 0x00,
   0x10, 0x00, 0x10, 0x01, 0x00, 0x01, 0x10, 0x18, 0x00, 0x00, 0x10, 0x00,
   0x10, 0x01, 0x00, 0x01, 0x10, 0x18, 0x00, 0x00, 0x10, 0x00, 0x10, 0x31,
   0x00, 0x01, 0x90, 0x18, 0x00, 0x70, 0x10, 0x00, 0x10, 0x49, 0x34, 0x02,
   0x70, 0x18, 0xc0, 0x78, 0x10, 0x00, 0x10, 0x89, 0x58, 0x02, 0x1c, 0x78,
   0xe0, 0x18, 0xf8, 0x00, 0x10, 0x89, 0x09, 0x02, 0x10, 0xf0, 0x91, 0xf1,
   0x10, 0x00, 0x10, 0x19, 0x11, 0xc2, 0x10, 0xb0, 0x93, 0xe1, 0x11, 0x0c,
   0x10, 0xf1, 0x10, 0x22, 0x11, 0x30, 0xd3, 0x00, 0x33, 0x1a, 0x10, 0x01,
   0x10, 0x22, 0x11, 0x30, 0x32, 0x00, 0x23, 0x22, 0x90, 0x00, 0x10, 0x22,
   0x11, 0x30, 0xe3, 0x63, 0x22, 0x4c, 0x7c, 0x00, 0x00, 0xc3, 0x10, 0x70,
   0xc3, 0x61, 0x23, 0x38, 0x10, 0x00, 0x00, 0x00, 0x50, 0xc0, 0x03, 0xe0,
   0x63, 0x00, 0x00, 0x00, 0x00, 0x00, 0x60, 0x00, 0x00, 0xc0, 0xc1, 0x00 };
