#define initial_screen_mini_width 22
#define initial_screen_mini_height 27
static unsigned char initial_screen_mini_bits[] = {
   0x00, 0x02, 0x00, 0x01, 0x02, 0x00, 0x02, 0x02, 0x00, 0x02, 0x01, 0x00,
   0x02, 0x11, 0x00, 0x04, 0x01, 0x00, 0x84, 0x00, 0x00, 0x88, 0x00, 0x1c,
   0x88, 0x10, 0x02, 0x90, 0x90, 0x02, 0x90, 0x10, 0x03, 0x50, 0x10, 0x02,
   0x60, 0x10, 0x02, 0x60, 0x10, 0x04, 0x42, 0x10, 0x04, 0x44, 0x10, 0x04,
   0x04, 0x20, 0x00, 0x04, 0x20, 0x00, 0x04, 0x00, 0x07, 0x0c, 0x18, 0x01,
   0x78, 0x24, 0x0e, 0xc8, 0x24, 0x18, 0x88, 0x15, 0x10, 0x08, 0x0d, 0x20,
   0x88, 0xf1, 0x24, 0x90, 0x00, 0x22, 0xf0, 0x00, 0x1e };
