#define 0_width 10
#define 0_height 10
static unsigned char 0_bits[] = {
   0x03, 0x03, 0x87, 0x03, 0xce, 0x01, 0x78, 0x00, 0x70, 0x00, 0xd8, 0x00,
   0x8c, 0x01, 0x04, 0x01, 0x02, 0x02, 0x00, 0x00 };
