#define 1_width 10
#define 1_height 10
static unsigned char 1_bits[] = {
   0xc0, 0x01, 0xf0, 0x03, 0x78, 0x03, 0xe8, 0x03, 0xb8, 0x03, 0xf8, 0x01,
   0x74, 0x00, 0x0b, 0x00, 0x05, 0x00, 0x06, 0x00 };
