#define 4_width 10
#define 4_height 10
static unsigned char 4_bits[] = {
   0x00, 0x00, 0xfc, 0x00, 0x2a, 0x01, 0x01, 0x02, 0xfe, 0x01, 0xb4, 0x00,
   0x4a, 0x01, 0xfe, 0x01, 0x01, 0x02, 0xfe, 0x01 };
