#define apple_width 8
#define apple_height 8
static unsigned char apple_bits[] = {
   0x10, 0x08, 0x3e, 0x7f, 0x5f, 0x7f, 0x7f, 0x3e };
