#define cheese_width 8
#define cheese_height 8
static unsigned char cheese_bits[] = {
   0x1c, 0x22, 0x4f, 0xb1, 0xc1, 0x95, 0xa9, 0xff };
