#define 6_width 10
#define 6_height 10
static unsigned char 6_bits[] = {
   0x00, 0x00, 0x1c, 0x00, 0x62, 0x00, 0x81, 0x01, 0x1f, 0x02, 0xe1, 0x03,
   0x01, 0x02, 0xab, 0x02, 0x55, 0x03, 0xfe, 0x01 };
