#define chicken_width 8
#define chicken_height 8
static unsigned char chicken_bits[] = {
   0xf0, 0xb8, 0xfc, 0xd4, 0x7c, 0x3a, 0x05, 0x03 };
