#define cupcake_width 8
#define cupcake_height 8
static unsigned char cupcake_bits[] = {
   0x3c, 0x6e, 0xbd, 0x81, 0xd3, 0x6e, 0x42, 0x7e };
