#define 3_width 10
#define 3_height 10
static unsigned char 3_bits[] = {
   0x30, 0x00, 0x78, 0x00, 0xde, 0x01, 0x79, 0x02, 0x01, 0x02, 0x23, 0x03,
   0xd6, 0x01, 0x0a, 0x01, 0x02, 0x01, 0xfc, 0x00 };
