#define doughnut_width 8
#define doughnut_height 8
static unsigned char doughnut_bits[] = {
   0x00, 0x3c, 0x7e, 0xff, 0xe7, 0xbd, 0x42, 0x3c };
