#define egg_width 8
#define egg_height 8
static unsigned char egg_bits[] = {
   0x18, 0x24, 0x42, 0x42, 0x99, 0x99, 0x42, 0x3c };
