#define fries_width 10
#define fries_height 10
static unsigned char fries_bits[] = {
   0xdc, 0x01, 0x77, 0x01, 0x55, 0x01, 0x55, 0x01, 0xff, 0x01, 0xc7, 0x01,
   0xef, 0x01, 0xef, 0x01, 0xff, 0x01, 0xfe, 0x00 };
