#define hamburger_width 8
#define hamburger_height 8
static unsigned char hamburger_bits[] = {
   0x3c, 0x4a, 0x81, 0x7e, 0x2c, 0x7e, 0x81, 0x7e };
