#define melon_width 8
#define melon_height 8
static unsigned char melon_bits[] = {
   0x00, 0x00, 0xff, 0xa9, 0xc3, 0x7e, 0x3c, 0x00 };
