#define palette_width 8
#define palette_height 8
static unsigned char palette_bits[] = {
   0x3c, 0x24, 0x42, 0x4a, 0x4a, 0x4a, 0x7e, 0x18 };
