#define 2_width 10
#define 2_height 10
static unsigned char 2_bits[] = {
   0xd6, 0x01, 0x78, 0x00, 0xfe, 0x00, 0xd4, 0x00, 0x02, 0x01, 0x2a, 0x01,
   0x56, 0x01, 0x2a, 0x01, 0x94, 0x00, 0x78, 0x00 };
