#define pineaple_width 8
#define pineaple_height 8
static unsigned char pineaple_bits[] = {
   0xd7, 0x7e, 0x5a, 0x81, 0xa9, 0x95, 0x4a, 0x3c };
