#define pizza_width 10
#define pizza_height 10
static unsigned char pizza_bits[] = {
   0x00, 0x00, 0x18, 0x00, 0x24, 0x00, 0x72, 0x00, 0xda, 0x00, 0xb9, 0x01,
   0x6d, 0x03, 0xff, 0x03, 0x00, 0x00, 0x00, 0x00 };
