#define pizza_width 8
#define pizza_height 8
static unsigned char pizza_bits[] = {
   0x3c, 0x22, 0x3a, 0x69, 0x7d, 0xde, 0xf0, 0xc0 };
