#define rice_width 8
#define rice_height 8
static unsigned char rice_bits[] = {
   0x00, 0x18, 0x24, 0x42, 0x42, 0xbd, 0x42, 0x3c };
