#define supo_width 8
#define supo_height 8
static unsigned char supo_bits[] = {
   0x00, 0x3c, 0x42, 0x89, 0xc3, 0xbd, 0x42, 0x3c };
