#define 0_width 10
#define 0_height 10
static unsigned char 0_bits[] = {
   0x00, 0x00, 0x78, 0x00, 0x86, 0x01, 0x49, 0x02, 0x25, 0x02, 0x03, 0x03,
   0xfd, 0x02, 0x02, 0x01, 0xfc, 0x00, 0x00, 0x00 };
