#define sushi_width 8
#define sushi_height 8
static unsigned char sushi_bits[] = {
   0x7c, 0xc6, 0x92, 0xc6, 0xfe, 0xfe, 0x7c, 0x00 };
