#define heart_half_width 7
#define heart_half_height 7
static unsigned char heart_half_bits[] = {
   0x36, 0x4f, 0x4f, 0x2e, 0x1c, 0x08, 0x00 };
