#define heart_full_width 7
#define heart_full_height 7
static unsigned char heart_full_bits[] = {
   0x36, 0x7f, 0x7f, 0x3e, 0x1c, 0x08, 0x00 };
