#define heart_empty_width 7
#define heart_empty_height 7
static unsigned char heart_empty_bits[] = {
   0x36, 0x49, 0x41, 0x22, 0x14, 0x08, 0x00 };
