#define home_width 10
#define home_height 10
static unsigned char home_bits[] = {
   0x30, 0x00, 0x48, 0x00, 0x84, 0x00, 0x02, 0x01, 0xff, 0x03, 0x84, 0x00,
   0x84, 0x00, 0x84, 0x00, 0xfc, 0x00, 0x00, 0x00 };
