#define exp_width 64
#define exp_height 32
static unsigned char exp_bits[] = {
   0x03, 0x03, 0x00, 0x00, 0x00, 0x00, 0x00, 0x00, 0x07, 0x03, 0x00, 0x02,
   0x00, 0x00, 0x04, 0x00, 0x06, 0x03, 0x00, 0x02, 0x00, 0x00, 0x04, 0x00,
   0x06, 0x03, 0x00, 0x04, 0x00, 0x00, 0x04, 0x00, 0x86, 0x31, 0x70, 0x04,
   0x00, 0x00, 0x04, 0x00, 0x8c, 0x31, 0xf0, 0x68, 0x20, 0x00, 0x04, 0x00,
   0x8c, 0x01, 0x9a, 0x18, 0x20, 0x3c, 0x04, 0x07, 0x88, 0x01, 0x1e, 0x0c,
   0x20, 0x60, 0x04, 0x04, 0x98, 0x31, 0x1c, 0x17, 0x44, 0x40, 0x04, 0x0c,
   0x98, 0x31, 0x18, 0x10, 0x44, 0x78, 0x84, 0x0b, 0xb0, 0x31, 0x38, 0x10,
   0x44, 0x44, 0x84, 0x08, 0xf0, 0x31, 0x30, 0x20, 0x44, 0x44, 0x84, 0x08,
   0xe0, 0x31, 0x30, 0x20, 0x24, 0x44, 0x84, 0x0c, 0xe0, 0x30, 0x30, 0x40,
   0x28, 0x44, 0x84, 0x17, 0xc0, 0x70, 0x00, 0x40, 0x18, 0xfc, 0x08, 0x00,
   0x40, 0x70, 0x00, 0x80, 0x00, 0x80, 0x81, 0x01, 0x00, 0x60, 0x00, 0x00,
   0x00, 0x00, 0x80, 0x00, 0xf8, 0x60, 0x00, 0x00, 0x1c, 0x00, 0x80, 0x00,
   0x10, 0x01, 0x20, 0x80, 0x1c, 0x00, 0x80, 0x00, 0x10, 0x01, 0x20, 0x80,
   0x18, 0x00, 0x80, 0x00, 0x10, 0x01, 0x40, 0x80, 0x18, 0x00, 0x80, 0x00,
   0x10, 0x01, 0x40, 0x80, 0x1b, 0x00, 0x8e, 0x00, 0x10, 0x81, 0x8d, 0xe0,
   0x18, 0x60, 0xcf, 0x07, 0x10, 0x01, 0x96, 0x80, 0x78, 0x70, 0x83, 0x00,
   0x10, 0x19, 0x82, 0x98, 0xf0, 0xd9, 0x9e, 0x18, 0x10, 0x25, 0x84, 0xa4,
   0xb0, 0xdb, 0xbc, 0x35, 0x10, 0x45, 0x84, 0xa4, 0x30, 0x6b, 0x60, 0xc5,
   0x10, 0xc5, 0x84, 0xa4, 0x30, 0x3a, 0x60, 0x99, 0x92, 0x8c, 0x84, 0x98,
   0x30, 0xf3, 0x4d, 0x71, 0x7c, 0x78, 0x80, 0x80, 0x72, 0xe3, 0x6c, 0x03,
   0x10, 0x00, 0xc0, 0x00, 0xe3, 0x03, 0x7c, 0x06, 0x00, 0x00, 0x00, 0x00,
   0x00, 0x00, 0x38, 0x00 };
