#define logo_small_width 24
#define logo_small_height 24
static unsigned char logo_small_bits[] = {
   0x0e, 0x00, 0x00, 0x0e, 0x06, 0x00, 0x0c, 0x06, 0x00, 0x0c, 0x33, 0x00,
   0x18, 0x33, 0x00, 0x18, 0x03, 0x70, 0x10, 0x03, 0xf0, 0x30, 0x33, 0x9a,
   0x30, 0x33, 0x1e, 0x67, 0x33, 0x1c, 0xe7, 0x33, 0x18, 0xc6, 0x33, 0x38,
   0xc6, 0x31, 0x30, 0x86, 0x01, 0x37, 0x86, 0x98, 0x37, 0x1e, 0x9c, 0x01,
   0x7c, 0x36, 0x0f, 0xec, 0x36, 0x1e, 0xcc, 0x1a, 0x30, 0x8c, 0x0e, 0x30,
   0xcc, 0x7c, 0x26, 0xdc, 0x38, 0x36, 0xf8, 0x00, 0x3e, 0x00, 0x00, 0x1c };
