#define cancel_width 8
#define cancel_height 8
static unsigned char cancel_bits[] = {
   0x00, 0xc3, 0xe7, 0x3c, 0x38, 0x6c, 0x44, 0x82 };
