#define cancel_width 10
#define cancel_height 10
static unsigned char cancel_bits[] = {
   0x00, 0x00, 0x00, 0x00, 0x86, 0x01, 0xce, 0x01, 0x78, 0x00, 0x70, 0x00,
   0xd8, 0x00, 0x88, 0x00, 0x04, 0x01, 0x00, 0x00 };
