#define clean_width 10
#define clean_height 10
static unsigned char clean_bits[] = {
   0x00, 0x00, 0x00, 0x01, 0x80, 0x00, 0x40, 0x00, 0x20, 0x00, 0x10, 0x00,
   0x08, 0x00, 0x3e, 0x00, 0x2a, 0x00, 0x00, 0x00 };
