#define clean_width 8
#define clean_height 8
static unsigned char clean_bits[] = {
   0x80, 0x40, 0x20, 0x10, 0x08, 0x04, 0x1f, 0x15 };
