#define data_width 10
#define data_height 10
static unsigned char data_bits[] = {
   0x00, 0x00, 0x7e, 0x00, 0xa2, 0x00, 0x22, 0x01, 0xe2, 0x01, 0x02, 0x01,
   0x02, 0x01, 0x02, 0x01, 0xfe, 0x01, 0x00, 0x00 };
