#define data_width 8
#define data_height 8
static unsigned char data_bits[] = {
   0x3f, 0x51, 0x91, 0xf1, 0x81, 0x81, 0x81, 0xff };
