#define food_width 10
#define food_height 10
static unsigned char food_bits[] = {
   0x00, 0x00, 0x4e, 0x01, 0x4e, 0x01, 0xce, 0x01, 0x84, 0x00, 0x84, 0x00,
   0x84, 0x00, 0x84, 0x00, 0x84, 0x00, 0x00, 0x00 };
