#define food_width 8
#define food_height 8
static unsigned char food_bits[] = {
   0x57, 0x57, 0x77, 0x22, 0x22, 0x22, 0x22, 0x22 };
