#define empty_width 8
#define empty_height 8
static unsigned char empty_bits[] = {
   0x78, 0x84, 0x9e, 0xa1, 0xab, 0x61, 0x25, 0x1e };
