#define home_width 8
#define home_height 8
static unsigned char home_bits[] = {
   0x3c, 0x42, 0x81, 0xff, 0x42, 0x42, 0x42, 0x7e };
