#define learn_width 8
#define learn_height 8
static unsigned char learn_bits[] = {
   0x7e, 0x91, 0x89, 0x91, 0x89, 0x91, 0x99, 0xe7 };
