#define mail_width 8
#define mail_height 8
static unsigned char mail_bits[] = {
   0x00, 0x7e, 0xc3, 0xa5, 0x99, 0x81, 0x81, 0xff };
