#define medic_width 8
#define medic_height 8
static unsigned char medic_bits[] = {
   0x3c, 0x66, 0x81, 0x99, 0xbd, 0x99, 0x81, 0xff };
