#define outside_width 8
#define outside_height 8
static unsigned char outside_bits[] = {
   0x1c, 0x22, 0x41, 0x41, 0x51, 0x41, 0x41, 0x7f };
