#define play_width 8
#define play_height 8
static unsigned char play_bits[] = {
   0x0e, 0x11, 0x11, 0x11, 0x0a, 0x44, 0x24, 0x18 };
