#define settings_width 8
#define settings_height 8
static unsigned char settings_bits[] = {
   0x2a, 0xbc, 0x7f, 0xe6, 0x67, 0xfe, 0x3d, 0x54 };
