#define shower_width 8
#define shower_height 8
static unsigned char shower_bits[] = {
   0x70, 0x40, 0x40, 0x40, 0xff, 0x82, 0x84, 0x78 };
