#define sleep_width 8
#define sleep_height 8
static unsigned char sleep_bits[] = {
   0xf0, 0x40, 0x20, 0xf0, 0x0f, 0x04, 0x02, 0x0f };
