#define status_width 8
#define status_height 8
static unsigned char status_bits[] = {
   0x3c, 0x42, 0x99, 0x81, 0x99, 0x99, 0x5a, 0x3c };
