#define 00_width 10
#define 00_height 10
static unsigned char 00_bits[] = {
   0x00, 0x00, 0xe0, 0x00, 0xc0, 0x00, 0xc0, 0x00, 0xc0, 0x00, 0x80, 0x01,
   0x80, 0x01, 0x00, 0x01, 0x00, 0x03, 0x00, 0x03 };
