#define 00_width 10
#define 00_height 10
static unsigned char 00_bits[] = {
   0x30, 0x00, 0x70, 0x00, 0x60, 0x00, 0x60, 0x00, 0x60, 0x00, 0xc0, 0x00,
   0xc0, 0x00, 0x80, 0x00, 0x80, 0x01, 0x80, 0x01 };
