#define 01_width 10
#define 01_height 10
static unsigned char 01_bits[] = {
   0x0c, 0x00, 0x0c, 0x00, 0x0c, 0x00, 0x0c, 0x00, 0xc6, 0x00, 0xc6, 0x00,
   0x06, 0x00, 0x06, 0x00, 0xc6, 0x02, 0xc6, 0x02 };
