#define 01_width 10
#define 01_height 10
static unsigned char 01_bits[] = {
   0x00, 0x00, 0x18, 0x00, 0x18, 0x02, 0x18, 0x02, 0x0c, 0x00, 0x0c, 0x00,
   0x0c, 0x02, 0x0c, 0x02, 0x0c, 0x02, 0x0c, 0x02 };
