#define 02_width 10
#define 02_height 10
static unsigned char 02_bits[] = {
   0x40, 0x00, 0x80, 0x00, 0x80, 0x00, 0x80, 0x00, 0x00, 0x01, 0x00, 0x01,
   0x1c, 0x02, 0x3c, 0x02, 0x26, 0x00, 0x07, 0x00 };
