#define 02_width 10
#define 02_height 10
static unsigned char 02_bits[] = {
   0x00, 0x00, 0x00, 0x00, 0x01, 0x00, 0x01, 0x00, 0x00, 0x00, 0x00, 0x00,
   0x01, 0x00, 0x01, 0x03, 0x01, 0x03, 0xa1, 0x01 };
