#define 03_width 10
#define 03_height 10
static unsigned char 03_bits[] = {
   0x08, 0x00, 0x10, 0x00, 0x10, 0x00, 0x10, 0x00, 0x20, 0x00, 0x20, 0x00,
   0x40, 0x00, 0x41, 0x00, 0x83, 0x02, 0x82, 0x01 };
