#define 03_width 10
#define 03_height 10
static unsigned char 03_bits[] = {
   0x00, 0x00, 0x00, 0x00, 0x00, 0x00, 0x00, 0x00, 0x00, 0x00, 0x00, 0x00,
   0x00, 0x00, 0x00, 0x00, 0x0d, 0x00, 0x03, 0x00 };
