#define 04_width 10
#define 04_height 10
static unsigned char 04_bits[] = {
   0x00, 0x00, 0x00, 0x00, 0x00, 0x00, 0x00, 0x00, 0x00, 0x01, 0x00, 0x01,
   0x00, 0x01, 0x20, 0x02, 0x21, 0x02, 0x20, 0x02 };
