#define 04_width 10
#define 04_height 10
static unsigned char 04_bits[] = {
   0x00, 0x00, 0x00, 0x00, 0x00, 0x00, 0x00, 0x00, 0x00, 0x00, 0x00, 0x00,
   0xe0, 0x01, 0x01, 0x03, 0x01, 0x02, 0xc1, 0x03 };
