#define 05_width 10
#define 05_height 10
static unsigned char 05_bits[] = {
   0x00, 0x00, 0x00, 0x00, 0x78, 0x00, 0xc0, 0x00, 0x80, 0x00, 0xf0, 0x00,
   0x88, 0x00, 0x88, 0x00, 0x88, 0x00, 0x88, 0x00 };
