#define 05_width 10
#define 05_height 10
static unsigned char 05_bits[] = {
   0x00, 0x00, 0x10, 0x00, 0x10, 0x00, 0x10, 0x00, 0x10, 0x00, 0x10, 0x00,
   0x10, 0x00, 0x10, 0x00, 0x10, 0x02, 0x10, 0x02 };
