#define 06_width 10
#define 06_height 10
static unsigned char 06_bits[] = {
   0x00, 0x00, 0x00, 0x00, 0x00, 0x00, 0x00, 0x00, 0x00, 0x00, 0x07, 0x00,
   0x04, 0x00, 0x0c, 0x00, 0x0b, 0x00, 0x08, 0x00 };
