#define 06_width 10
#define 06_height 10
static unsigned char 06_bits[] = {
   0x00, 0x00, 0x00, 0x00, 0x08, 0x00, 0x08, 0x00, 0x08, 0x00, 0x08, 0x03,
   0x08, 0x00, 0x08, 0x00, 0x88, 0x03, 0x88, 0x00 };
