#define 07_width 10
#define 07_height 10
static unsigned char 07_bits[] = {
   0x00, 0x00, 0x00, 0x00, 0x00, 0x00, 0x00, 0x00, 0x00, 0x00, 0x01, 0x00,
   0x01, 0x00, 0x03, 0x00, 0x02, 0x00, 0x02, 0x00 };
