#define 08_width 10
#define 08_height 10
static unsigned char 08_bits[] = {
   0xc6, 0x00, 0xc7, 0x00, 0xc7, 0x00, 0xc3, 0x00, 0xc3, 0x01, 0xc1, 0x01,
   0x80, 0x01, 0x80, 0x01, 0x00, 0x00, 0x00, 0x00 };
