#define 08_width 10
#define 08_height 10
static unsigned char 08_bits[] = {
   0x00, 0x02, 0x00, 0x02, 0x00, 0x00, 0x00, 0x00, 0x00, 0x00, 0x00, 0x00,
   0xf8, 0x00, 0x10, 0x01, 0x10, 0x01, 0x10, 0x01 };
