#define 09_width 10
#define 09_height 10
static unsigned char 09_bits[] = {
   0x0d, 0x02, 0x0f, 0x02, 0x0f, 0x02, 0x07, 0x02, 0x06, 0x00, 0x02, 0x00,
   0x00, 0x00, 0x00, 0x00, 0x00, 0x00, 0x0c, 0x00 };
