#define 09_width 10
#define 09_height 10
static unsigned char 09_bits[] = {
   0x07, 0x02, 0x86, 0x03, 0x0e, 0x00, 0x0c, 0x00, 0x0c, 0x00, 0x0c, 0x00,
   0x00, 0x00, 0x00, 0x00, 0x00, 0x00, 0x00, 0x00 };
