#define 10_width 10
#define 10_height 10
static unsigned char 10_bits[] = {
   0x81, 0x00, 0x82, 0x00, 0x82, 0x00, 0x82, 0x00, 0x84, 0x00, 0x04, 0x01,
   0x08, 0x03, 0x08, 0x00, 0x10, 0x00, 0x10, 0x00 };
