#define 10_width 10
#define 10_height 10
static unsigned char 10_bits[] = {
   0xe1, 0x01, 0xc1, 0x01, 0x83, 0x01, 0x83, 0x03, 0x03, 0x03, 0x03, 0x03,
   0x18, 0x03, 0x10, 0x00, 0x10, 0x00, 0x10, 0x00 };
