#define 11_width 10
#define 11_height 10
static unsigned char 11_bits[] = {
   0xc0, 0x00, 0x70, 0x01, 0x00, 0x01, 0x00, 0x01, 0x00, 0x02, 0x00, 0x02,
   0x40, 0x00, 0x40, 0x00, 0x40, 0x00, 0x40, 0x02 };
