#define 11_width 10
#define 11_height 10
static unsigned char 11_bits[] = {
   0x22, 0x02, 0x22, 0x02, 0x22, 0x02, 0x22, 0x02, 0xe1, 0x03, 0x01, 0x00,
   0x00, 0x00, 0x00, 0x00, 0x00, 0x00, 0x00, 0x00 };
