#define 12_width 10
#define 12_height 10
static unsigned char 12_bits[] = {
   0x20, 0x02, 0x20, 0x01, 0x40, 0x01, 0xc0, 0x00, 0x00, 0x00, 0x1c, 0x00,
   0x1d, 0x00, 0x18, 0x00, 0x18, 0x00, 0x18, 0x00 };
