#define 12_width 10
#define 12_height 10
static unsigned char 12_bits[] = {
   0x10, 0x02, 0x10, 0x02, 0x10, 0x02, 0x10, 0x00, 0x21, 0x00, 0x03, 0x00,
   0x00, 0x00, 0x00, 0x00, 0x00, 0x00, 0x00, 0x00 };
