#define 13_width 10
#define 13_height 10
static unsigned char 13_bits[] = {
   0x08, 0x00, 0x0c, 0x00, 0x17, 0x00, 0x30, 0x00, 0x00, 0x00, 0x00, 0x00,
   0x00, 0x00, 0x00, 0x00, 0x00, 0x00, 0x00, 0x00 };
