#define 14_width 10
#define 14_height 10
static unsigned char 14_bits[] = {
   0x88, 0x00, 0x88, 0x00, 0x88, 0x03, 0x08, 0x00, 0x08, 0x00, 0x10, 0x01,
   0x00, 0x01, 0x00, 0x01, 0x00, 0x01, 0x07, 0x01 };
