#define 14_width 10
#define 14_height 10
static unsigned char 14_bits[] = {
   0x08, 0x01, 0x08, 0x01, 0x08, 0x01, 0x08, 0x01, 0x08, 0x01, 0x08, 0x01,
   0x08, 0x01, 0x08, 0x01, 0x08, 0x01, 0x08, 0x01 };
