#define 15_width 10
#define 15_height 10
static unsigned char 15_bits[] = {
   0x00, 0x00, 0x00, 0x00, 0x00, 0x00, 0x00, 0x00, 0x00, 0x00, 0x00, 0x00,
   0x00, 0x00, 0xc0, 0x02, 0x06, 0x03, 0x09, 0x01 };
