#define 15_width 10
#define 15_height 10
static unsigned char 15_bits[] = {
   0x02, 0x00, 0x03, 0x00, 0x05, 0x00, 0x0c, 0x00, 0x00, 0x00, 0x00, 0x00,
   0x00, 0x00, 0x00, 0x00, 0x00, 0x00, 0x00, 0x00 };
