#define 16_width 10
#define 16_height 10
static unsigned char 16_bits[] = {
   0x00, 0x00, 0x00, 0x00, 0x00, 0x00, 0x04, 0x00, 0x08, 0x00, 0x08, 0x00,
   0x10, 0x00, 0x11, 0x00, 0x12, 0x00, 0x10, 0x03 };
