#define 16_width 10
#define 16_height 10
static unsigned char 16_bits[] = {
   0x10, 0x01, 0x10, 0x01, 0x10, 0x01, 0x10, 0x01, 0x10, 0x01, 0x10, 0x01,
   0x90, 0x00, 0x7c, 0x00, 0x10, 0x00, 0x00, 0x00 };
