#define 17_width 10
#define 17_height 10
static unsigned char 17_bits[] = {
   0x00, 0x00, 0x80, 0x03, 0x88, 0x03, 0x08, 0x03, 0x08, 0x03, 0x48, 0x03,
   0x38, 0x03, 0x0e, 0x03, 0x08, 0x02, 0x08, 0x02 };
