#define 17_width 10
#define 17_height 10
static unsigned char 17_bits[] = {
   0x12, 0x01, 0x22, 0x02, 0x62, 0x02, 0x46, 0x00, 0x3c, 0x00, 0x00, 0x00,
   0x00, 0x00, 0x00, 0x00, 0x00, 0x00, 0x00, 0x00 };
