#define 18_width 10
#define 18_height 10
static unsigned char 18_bits[] = {
   0x23, 0x00, 0x25, 0x00, 0x20, 0x00, 0x21, 0x00, 0x21, 0x02, 0x21, 0x02,
   0x21, 0x02, 0x30, 0x00, 0x00, 0x00, 0x00, 0x00 };
