#define 18_width 10
#define 18_height 10
static unsigned char 18_bits[] = {
   0x00, 0x00, 0x00, 0x00, 0x00, 0x00, 0x00, 0x00, 0x00, 0x00, 0x00, 0x00,
   0x00, 0x03, 0x83, 0x03, 0xcf, 0x02, 0xdd, 0x02 };
