#define 19_width 10
#define 19_height 10
static unsigned char 19_bits[] = {
   0xc0, 0x01, 0x70, 0x00, 0x40, 0x00, 0x43, 0x00, 0x44, 0x00, 0x44, 0x00,
   0x44, 0x00, 0x43, 0x00, 0x40, 0x01, 0x80, 0x01 };
