#define 19_width 10
#define 19_height 10
static unsigned char 19_bits[] = {
   0x00, 0x00, 0x00, 0x00, 0x00, 0x00, 0x00, 0x00, 0x00, 0x00, 0x38, 0x00,
   0x3c, 0x02, 0x1d, 0x00, 0x79, 0x00, 0xf1, 0x00 };
