#define 20_width 10
#define 20_height 10
static unsigned char 20_bits[] = {
   0x18, 0x00, 0x78, 0x00, 0xf0, 0x01, 0xb0, 0x03, 0x30, 0x03, 0x30, 0x02,
   0x30, 0x03, 0x70, 0x03, 0xc0, 0x03, 0x00, 0x00 };
