#define 20_width 10
#define 20_height 10
static unsigned char 20_bits[] = {
   0x01, 0x00, 0x01, 0x00, 0x01, 0x00, 0x01, 0x00, 0x01, 0x00, 0x01, 0x00,
   0x0f, 0x00, 0x01, 0x00, 0x61, 0x00, 0xd3, 0x00 };
