#define 21_width 10
#define 21_height 10
static unsigned char 21_bits[] = {
   0x30, 0x02, 0x38, 0x02, 0x64, 0x00, 0x64, 0x00, 0x34, 0x00, 0x0c, 0x00,
   0xf8, 0x00, 0x70, 0x00, 0x00, 0x00, 0x00, 0x00 };
