#define 21_width 10
#define 21_height 10
static unsigned char 21_bits[] = {
   0x89, 0x00, 0x7e, 0x00, 0x08, 0x00, 0x00, 0x00, 0x00, 0x00, 0x00, 0x00,
   0x00, 0x00, 0x00, 0x00, 0x00, 0x00, 0x00, 0x00 };
