#define 22_width 10
#define 22_height 10
static unsigned char 22_bits[] = {
   0x07, 0x01, 0x81, 0x03, 0x0f, 0x01, 0x1e, 0x01, 0x30, 0x03, 0x30, 0x02,
   0x26, 0x02, 0x36, 0x02, 0x3e, 0x02, 0x1c, 0x00 };
