#define 22_width 10
#define 22_height 10
static unsigned char 22_bits[] = {
   0x11, 0x02, 0x31, 0x02, 0x23, 0x02, 0x1e, 0x02, 0x00, 0x00, 0x00, 0x00,
   0x00, 0x00, 0x00, 0x00, 0x00, 0x00, 0x00, 0x00 };
