#define 23_width 10
#define 23_height 10
static unsigned char 23_bits[] = {
   0x90, 0x00, 0x90, 0x00, 0x90, 0x00, 0x10, 0x03, 0x18, 0x00, 0x00, 0x00,
   0x00, 0x00, 0x00, 0x00, 0x00, 0x00, 0x00, 0x00 };
