#define 23_width 10
#define 23_height 10
static unsigned char 23_bits[] = {
   0x00, 0x00, 0x03, 0x00, 0x00, 0x00, 0x30, 0x00, 0x68, 0x00, 0x88, 0x00,
   0x30, 0x01, 0xe0, 0x00, 0x01, 0x00, 0x03, 0x00 };
