#define 24_width 10
#define 24_height 10
static unsigned char 24_bits[] = {
   0x09, 0x02, 0x09, 0x02, 0x09, 0x02, 0x08, 0x02, 0x28, 0x00, 0x30, 0x00,
   0x00, 0x00, 0x00, 0x00, 0x00, 0x00, 0x00, 0x00 };
