#define 25_width 10
#define 25_height 10
static unsigned char 25_bits[] = {
   0xd9, 0x03, 0xd9, 0x01, 0x99, 0x03, 0x1f, 0x03, 0x1f, 0x00, 0x00, 0x00,
   0x00, 0x00, 0x00, 0x00, 0x00, 0x00, 0x00, 0x00 };
