#define 26_width 10
#define 26_height 10
static unsigned char 26_bits[] = {
   0xc0, 0x01, 0x82, 0x01, 0x33, 0x01, 0xb1, 0x01, 0xf0, 0x01, 0xe0, 0x00,
   0x00, 0x00, 0x00, 0x00, 0x00, 0x00, 0x00, 0x00 };
