#define 27_width 10
#define 27_height 10
static unsigned char 27_bits[] = {
   0x12, 0x01, 0x62, 0x02, 0xc2, 0x01, 0x06, 0x00, 0x0c, 0x00, 0x00, 0x00,
   0x00, 0x00, 0x00, 0x00, 0x00, 0x00, 0x00, 0x00 };
