#define 0_2_width 10
#define 0_2_height 10
static unsigned char 0_2_bits[] = {
   0x04, 0x00, 0x06, 0x00, 0x05, 0x00, 0x09, 0x00, 0x19, 0x00, 0xe6, 0x00,
   0x10, 0x03, 0x10, 0x00, 0x10, 0x02, 0xe0, 0x01 };
