#define 0_3_width 10
#define 0_3_height 10
static unsigned char 0_3_bits[] = {
   0xc0, 0x01, 0x40, 0x02, 0x40, 0x02, 0xa0, 0x01, 0x18, 0x00, 0x26, 0x00,
   0x41, 0x00, 0x41, 0x00, 0x33, 0x00, 0x1c, 0x00 };
