#define 1_2_width 10
#define 1_2_height 10
static unsigned char 1_2_bits[] = {
   0x04, 0x00, 0x06, 0x00, 0x05, 0x00, 0x05, 0x00, 0x09, 0x00, 0x1e, 0x00,
   0xe0, 0x03, 0x10, 0x00, 0x10, 0x02, 0xe0, 0x01 };
