#define 1_3_width 10
#define 1_3_height 10
static unsigned char 1_3_bits[] = {
   0xc0, 0x01, 0x40, 0x02, 0x40, 0x02, 0xc0, 0x01, 0x20, 0x00, 0x38, 0x00,
   0x46, 0x00, 0x41, 0x00, 0x33, 0x00, 0x1c, 0x00 };
