#define 2_1_width 10
#define 2_1_height 10
static unsigned char 2_1_bits[] = {
   0x00, 0x00, 0x00, 0x00, 0x10, 0x00, 0x29, 0x00, 0x46, 0x00, 0x28, 0x00,
   0x10, 0x00, 0x20, 0x00, 0x20, 0x00, 0x40, 0x00 };
