#define 2_2_width 10
#define 2_2_height 10
static unsigned char 2_2_bits[] = {
   0x04, 0x00, 0x34, 0x00, 0x4c, 0x00, 0x44, 0x00, 0x38, 0x00, 0x10, 0x00,
   0xe0, 0x03, 0x10, 0x00, 0x10, 0x02, 0xe0, 0x01 };
