#define 2_3_width 10
#define 2_3_height 10
static unsigned char 2_3_bits[] = {
   0x40, 0x00, 0x30, 0x00, 0x48, 0x00, 0x48, 0x00, 0x30, 0x00, 0x1c, 0x00,
   0x22, 0x00, 0x41, 0x00, 0x43, 0x00, 0x3c, 0x00 };
