#define 3_0_width 10
#define 3_0_height 10
static unsigned char 3_0_bits[] = {
   0x00, 0x00, 0x00, 0x00, 0x00, 0x00, 0x08, 0x00, 0x94, 0x03, 0x62, 0x00,
   0x14, 0x00, 0x08, 0x00, 0x08, 0x00, 0x04, 0x00 };
