#define 3_1_width 10
#define 3_1_height 10
static unsigned char 3_1_bits[] = {
   0x00, 0x00, 0x00, 0x00, 0x00, 0x00, 0x10, 0x00, 0x29, 0x00, 0x46, 0x00,
   0x28, 0x00, 0x10, 0x00, 0x20, 0x01, 0x40, 0x00 };
