#define 3_2_width 10
#define 3_2_height 10
static unsigned char 3_2_bits[] = {
   0x04, 0x00, 0x04, 0x00, 0xe4, 0x00, 0x15, 0x01, 0x18, 0x01, 0xf0, 0x00,
   0xe1, 0x03, 0x14, 0x00, 0x10, 0x02, 0xe0, 0x01 };
