#define 3_3_width 10
#define 3_3_height 10
static unsigned char 3_3_bits[] = {
   0x40, 0x02, 0x40, 0x00, 0x5c, 0x01, 0x22, 0x00, 0x22, 0x00, 0x1c, 0x00,
   0x22, 0x00, 0x41, 0x00, 0x43, 0x00, 0x3c, 0x00 };
