#define eat_2_width 21
#define eat_2_height 18
static unsigned char eat_2_bits[] = {
   0x00, 0x00, 0x00, 0x08, 0x40, 0x00, 0x94, 0xa7, 0x00, 0x62, 0x18, 0x01,
   0x14, 0xa0, 0x00, 0x08, 0x40, 0x00, 0x08, 0x80, 0x04, 0x04, 0x00, 0x01,
   0x04, 0x00, 0x09, 0x04, 0x00, 0x01, 0xe4, 0x70, 0x05, 0x15, 0x89, 0x00,
   0x18, 0x89, 0x00, 0xf0, 0x70, 0x00, 0xe1, 0x8b, 0x00, 0x14, 0x04, 0x01,
   0x10, 0x0e, 0x01, 0xe0, 0xf1, 0x00 };
