#define eat_1_width 21
#define eat_1_height 18
static unsigned char eat_1_bits[] = {
   0x08, 0x40, 0x00, 0x94, 0xa7, 0x00, 0x62, 0x18, 0x01, 0x14, 0xa0, 0x00,
   0x08, 0x40, 0x00, 0x08, 0x80, 0x00, 0x04, 0x80, 0x00, 0x04, 0x00, 0x01,
   0x04, 0x00, 0x01, 0x34, 0xc0, 0x00, 0x4c, 0x20, 0x01, 0x44, 0x20, 0x01,
   0x38, 0xc0, 0x00, 0x10, 0x70, 0x00, 0xe0, 0x8b, 0x00, 0x10, 0x04, 0x01,
   0x10, 0x0e, 0x01, 0xe0, 0xf1, 0x00 };
