#define face_2_width 8
#define face_2_height 8
static unsigned char face_2_bits[] = {
   0x00, 0x00, 0x82, 0x6c, 0x82, 0x00, 0x38, 0x00 };
