#define face_0_width 9
#define face_0_height 9
static unsigned char face_0_bits[] = {
   0x00, 0x00, 0x00, 0x00, 0x00, 0x00, 0xef, 0x01, 0x08, 0x01, 0x00, 0x00,
   0x38, 0x00, 0x10, 0x00, 0x28, 0x00 };
