#define face_1_width 7
#define face_1_height 7
static unsigned char face_1_bits[] = {
   0x00, 0x77, 0x44, 0x00, 0x1c, 0x08, 0x14 };
