#define face_0_width 8
#define face_0_height 8
static unsigned char face_0_bits[] = {
   0x00, 0xee, 0x88, 0x00, 0x38, 0x10, 0x28, 0x00 };
