#define face_3_width 7
#define face_3_height 7
static unsigned char face_3_bits[] = {
   0x00, 0x00, 0x22, 0x55, 0x00, 0x18, 0x00 };
