#define face_1_width 8
#define face_1_height 8
static unsigned char face_1_bits[] = {
   0x00, 0x00, 0xee, 0x88, 0x00, 0x38, 0x10, 0x28 };
