#define face_eat_1_width 8
#define face_eat_1_height 8
static unsigned char face_eat_1_bits[] = {
   0x00, 0x00, 0x82, 0x6c, 0x82, 0x00, 0x30, 0x00 };
