#define face_0_width 7
#define face_0_height 6
static unsigned char face_0_bits[] = {
   0x77, 0x44, 0x00, 0x1c, 0x08, 0x14 };
