#define face_2_width 7
#define face_2_height 7
static unsigned char face_2_bits[] = {
   0x41, 0x36, 0x41, 0x00, 0x3c, 0x3c, 0x00 };
