#define face_3_width 8
#define face_3_height 8
static unsigned char face_3_bits[] = {
   0x00, 0x44, 0xaa, 0x00, 0x00, 0x38, 0x38, 0x00 };
