#define standby_1_width 21
#define standby_1_height 18
static unsigned char standby_1_bits[] = {
   0x08, 0x40, 0x00, 0x94, 0xa7, 0x00, 0x62, 0x18, 0x01, 0x14, 0xa0, 0x00,
   0x08, 0x40, 0x00, 0x0c, 0x80, 0x00, 0x04, 0x80, 0x00, 0x04, 0x00, 0x01,
   0x04, 0x00, 0x01, 0x04, 0x00, 0x07, 0x06, 0x00, 0x09, 0x05, 0x00, 0x09,
   0x09, 0x80, 0x06, 0x19, 0xe0, 0x00, 0xe6, 0x1b, 0x01, 0x10, 0x04, 0x01,
   0x10, 0x8e, 0x00, 0xe0, 0x71, 0x00 };
